<svg version="1.1" id="Layer_1" xmlns="http://www.w3.org/2000/svg" xmlns:xlink="http://www.w3.org/1999/xlink" x="0px" y="0px"
	 width="100%" viewBox="0 0 496 496" enable-background="new 0 0 496 496" xml:space="preserve">
<path fill="#000000" opacity="1.000000" stroke="none" 
	d="
M432.235718,386.463196 
	C431.603302,385.962891 431.226257,385.634979 430.318970,384.845917 
	C431.085480,389.300293 428.183105,390.277618 425.212555,390.879761 
	C422.591583,391.411072 422.477173,388.937317 421.846436,387.372253 
	C419.783905,382.254547 425.712433,383.547333 427.336578,380.069427 
	C395.952209,328.151093 364.211365,275.643036 332.317413,222.881760 
	C330.773346,224.900314 331.395386,226.791489 331.393951,228.501556 
	C331.343018,289.161530 331.346008,349.821533 331.351257,410.481537 
	C331.351471,413.069122 330.625671,416.001343 335.085815,415.751892 
	C337.461578,415.619049 337.319244,418.316284 337.983917,419.889343 
	C338.541565,421.209076 338.263397,423.097717 336.755463,423.170868 
	C329.702484,423.513092 324.458374,428.912384 317.942230,430.214050 
	C316.188202,428.018829 316.703766,425.945465 316.703278,424.019165 
	C316.674255,308.865143 316.674591,193.711105 316.681488,78.557083 
	C316.681580,76.893578 316.564545,75.179771 316.908630,73.576675 
	C317.708160,69.851471 320.169067,67.768295 323.996399,67.821251 
	C327.989716,67.876518 330.594727,69.962532 331.238159,74.003441 
	C331.497467,75.631897 331.344604,77.329239 331.344818,78.995224 
	C331.349152,109.158577 331.337952,139.321945 331.374237,169.485260 
	C331.376343,171.254440 330.880676,173.123749 332.135284,175.212601 
	C337.977356,171.598694 342.771271,166.789886 347.930389,162.500061 
	C379.574615,136.187637 411.126282,109.763901 442.708771,83.377228 
	C443.348175,82.843002 443.965057,82.278793 444.630768,81.779694 
	C448.738892,78.699707 453.649689,78.747414 456.380707,81.877350 
	C459.367004,85.299858 458.919281,89.494011 454.594574,93.230598 
	C445.014526,101.507797 435.271667,109.597458 425.555054,117.715584 
	C396.533112,141.963135 367.510956,166.210495 338.432404,190.389969 
	C335.080902,193.176819 333.226776,195.089752 336.242767,200.040604 
	C371.260406,257.523041 405.944763,315.208466 440.716583,372.840637 
	C441.232880,373.696381 441.822723,374.520508 442.232605,375.425354 
	C443.758270,378.793549 444.299744,382.225067 441.590027,385.221771 
	C439.035522,388.046844 435.858887,388.310913 432.235718,386.463196 
z"/>
<path fill="#000000" opacity="1.000000" stroke="none" 
	d="
M219.724609,289.743469 
	C206.403595,300.848663 193.387985,311.764374 180.272385,322.558563 
	C177.423874,324.902924 177.030746,326.729279 179.348145,329.962677 
	C192.887756,348.854248 199.372574,370.251495 201.406311,393.231079 
	C201.906281,398.880310 202.574158,404.519714 202.132736,410.155457 
	C201.775314,414.718628 203.588135,415.775543 207.853165,415.755981 
	C239.170761,415.612244 270.489441,415.649780 301.807373,415.750122 
	C304.461761,415.758636 308.204895,414.212006 309.569641,417.268127 
	C311.105591,420.707703 310.367706,424.792786 309.832886,428.590271 
	C309.672058,429.732330 308.676270,430.156433 307.614044,430.232025 
	C306.452881,430.314636 305.285675,430.342102 304.121094,430.342194 
	C222.327148,430.348083 140.533188,430.352844 58.739239,430.343536 
	C50.786144,430.342621 48.243198,428.219421 46.825321,420.654205 
	C46.153553,417.069946 47.136837,414.417633 50.105499,411.941467 
	C92.179459,376.847931 134.151382,341.632111 176.161911,306.462494 
	C203.359634,283.693573 230.593735,260.968140 257.785034,238.191544 
	C273.487305,225.038666 289.135193,211.820877 304.813446,198.639313 
	C306.063843,197.588043 307.106842,196.209167 308.831116,195.843704 
	C312.394958,202.789581 310.281281,213.953110 304.669312,218.645645 
	C276.433990,242.254944 248.217361,265.886597 219.724609,289.743469 
M91.986794,396.508392 
	C84.917320,402.512115 77.396294,408.024567 70.618607,415.074677 
	C71.832352,415.420288 72.149734,415.589691 72.467255,415.589935 
	C111.122536,415.622314 149.777863,415.620972 188.433029,415.700500 
	C191.768341,415.707367 192.841248,414.213043 192.719391,411.131805 
	C192.424225,403.669434 192.681946,396.239319 191.766830,388.737335 
	C189.886932,373.326263 185.631104,358.796539 178.089981,345.286011 
	C175.559052,340.751587 173.042923,336.037811 168.792908,332.328033 
	C143.128937,353.775452 117.832382,374.915863 91.986794,396.508392 
z"/>
<path fill="#000000" opacity="1.000000" stroke="none" 
	d="
M362.030487,414.237976 
	C359.136169,415.431213 357.412720,415.278168 356.302673,412.162933 
	C355.325439,409.420654 355.482025,407.789307 358.379883,406.713287 
	C361.305939,405.626740 360.715851,402.954773 360.647278,400.710236 
	C360.067535,381.740387 359.393494,362.773438 358.832184,343.803101 
	C358.766113,341.569824 358.143860,339.204315 359.429413,337.022369 
	C361.627625,336.989471 362.186279,338.818481 363.089569,340.070160 
	C374.592072,356.009735 386.114471,371.935913 397.457886,387.988434 
	C399.721924,391.192352 404.900513,392.541931 403.552338,398.743317 
	C390.272247,403.707184 376.337158,408.915894 362.030487,414.237976 
z"/>
<path fill="#000000" opacity="1.000000" stroke="none" 
	d="
M111.119904,340.703125 
	C111.645340,344.435883 109.986977,344.964508 107.958427,342.720795 
	C102.825577,337.043488 98.009323,331.078949 93.106316,325.196045 
	C92.463226,324.424469 92.041580,323.411438 92.861427,322.477448 
	C93.761787,321.451752 95.013107,321.571045 96.113358,321.940033 
	C100.371193,323.367920 104.576790,324.952728 108.842781,326.354553 
	C110.540161,326.912323 112.116310,328.102631 114.540794,327.546600 
	C114.475487,321.993286 112.874794,316.595917 112.090065,311.100250 
	C111.816429,309.183807 110.755142,306.797577 113.072052,305.743317 
	C115.254478,304.750214 116.114487,307.250305 117.226189,308.523926 
	C121.386627,313.290314 125.442787,318.148285 129.499710,323.003967 
	C130.429077,324.116302 131.869507,325.424469 130.363312,326.867279 
	C128.532135,328.621307 127.372154,326.772400 126.335503,325.563721 
	C123.344238,322.076111 120.432388,318.520416 116.465935,315.481720 
	C117.238541,320.111420 117.958679,324.750702 118.801788,329.367523 
	C119.386147,332.567413 118.116158,333.386597 115.238098,332.410431 
	C110.692619,330.868683 106.150787,329.316162 100.245728,327.304321 
	C104.368637,332.346863 107.663467,336.376617 111.119904,340.703125 
z"/>
<path fill="#000000" opacity="1.000000" stroke="none" 
	d="
M260.161255,213.630051 
	C258.586700,221.455521 252.404861,224.929642 247.226593,229.240692 
	C245.887405,230.355606 244.711929,229.671158 243.777466,228.578415 
	C238.924133,222.902985 234.094925,217.206833 229.273178,211.504501 
	C228.174469,210.205109 227.883942,208.856995 229.346588,207.590744 
	C232.854980,204.553406 236.106323,201.110153 240.404602,199.187927 
	C250.357101,194.737045 259.989990,201.618835 260.161255,213.630051 
M252.508759,219.950943 
	C255.053787,217.009109 257.332794,214.002563 255.920135,209.715439 
	C253.193756,201.441391 245.679214,199.495560 238.128082,205.138672 
	C232.757660,209.152100 232.750519,209.256226 236.967606,214.190903 
	C238.476685,215.956757 239.941162,217.760681 241.429398,219.544403 
	C246.176025,225.233429 246.176651,225.232910 252.508759,219.950943 
z"/>
<path fill="#000000" opacity="1.000000" stroke="none" 
	d="
M189.415863,269.712524 
	C183.841782,268.546570 178.665298,267.506317 172.797760,266.327209 
	C175.019470,271.366119 178.734009,274.442810 181.565903,278.158264 
	C182.659149,279.592590 185.211700,281.168365 182.792297,283.101471 
	C180.723755,284.754181 179.590408,282.277100 178.499344,281.000732 
	C174.387894,276.191162 170.352905,271.315186 166.352905,266.412201 
	C165.365585,265.201996 163.578125,264.030396 164.845947,262.137482 
	C165.888016,260.581573 167.551285,261.325867 168.989029,261.603455 
	C175.182297,262.799255 181.372528,264.010986 187.561081,265.231049 
	C188.365799,265.389709 189.161133,265.724640 190.229706,264.757904 
	C187.778107,260.509460 183.981323,257.232056 181.047058,253.303513 
	C180.146622,252.097961 178.177673,250.739822 180.219574,249.125626 
	C182.132187,247.613663 183.243942,249.552643 184.255478,250.745483 
	C188.455338,255.698135 192.609116,260.691193 196.696777,265.736664 
	C197.664124,266.930695 199.542053,268.080353 198.286072,269.980499 
	C197.134018,271.723419 195.361069,270.991241 193.731598,270.578339 
	C192.445602,270.252502 191.120956,270.079224 189.415863,269.712524 
z"/>
<path fill="#000000" opacity="1.000000" stroke="none" 
	d="
M145.437714,308.728119 
	C136.933731,306.606628 131.787140,299.770935 133.126770,292.796478 
	C134.742294,284.385712 142.015732,278.756348 149.950531,279.775513 
	C157.498444,280.745026 162.982681,287.709076 162.263687,295.411194 
	C161.520050,303.377289 155.453842,308.326294 145.437714,308.728119 
M138.975510,288.667877 
	C138.441498,289.870941 137.680664,291.025909 137.413528,292.285553 
	C136.372650,297.193848 139.048447,302.189667 143.583389,304.099823 
	C147.956635,305.941864 153.382858,304.261688 156.395645,300.132629 
	C159.437622,295.963562 159.178436,291.447266 155.665588,287.412170 
	C150.871017,281.904816 145.326584,282.124969 138.975510,288.667877 
z"/>
<path fill="#000000" opacity="1.000000" stroke="none" 
	d="
M90.110931,361.094116 
	C80.487206,369.072083 80.486435,369.072723 72.759789,359.873199 
	C70.081200,356.684021 67.478386,353.427399 64.706459,350.321625 
	C62.881084,348.276459 62.837158,346.739624 65.116875,344.974213 
	C68.274933,342.528625 71.214508,339.802979 74.308105,337.271118 
	C75.541885,336.261383 77.103081,334.566193 78.538994,336.470673 
	C79.967148,338.364868 77.742134,339.308197 76.635391,340.407471 
	C74.072723,342.952850 70.682190,344.637329 68.668289,347.791626 
	C69.646179,350.188232 71.236450,351.796631 73.378853,353.265625 
	C76.532921,351.743500 78.855286,349.080139 81.600586,347.000854 
	C82.537758,346.291046 83.590958,345.375244 84.683289,346.432861 
	C86.018776,347.725922 85.014748,348.889130 84.014557,349.822357 
	C82.553757,351.185364 81.095078,352.579437 79.476204,353.737610 
	C76.943016,355.549957 75.868767,357.104492 78.302406,360.133606 
	C80.883858,363.346710 82.779205,362.601471 85.208115,360.301788 
	C87.019279,358.587006 88.989799,357.033173 90.955597,355.492126 
	C91.931816,354.726898 92.987907,353.246765 94.362549,354.559570 
	C95.980446,356.104797 94.466515,357.249939 93.428047,358.273041 
	C92.481697,359.205414 91.409706,360.010223 90.110931,361.094116 
z"/>
<path fill="#000000" opacity="1.000000" stroke="none" 
	d="
M283.360168,194.212372 
	C285.797882,192.179810 287.955536,190.345917 290.164001,188.575348 
	C291.087189,187.835205 292.169830,187.132278 293.271118,188.224533 
	C294.460327,189.404007 293.586151,190.412842 292.696503,191.173935 
	C289.028290,194.312149 285.285400,197.362946 281.606781,200.489227 
	C279.724365,202.089020 278.310638,201.380020 276.956299,199.763443 
	C272.463989,194.401382 267.963684,189.045944 263.447418,183.704086 
	C262.096863,182.106659 261.551025,180.583450 263.451050,178.990646 
	C266.896729,176.102127 270.291229,173.151764 273.768921,170.302689 
	C274.769012,169.483383 276.055298,168.465805 277.214539,170.004700 
	C278.342255,171.501755 277.044250,172.447388 276.056396,173.316910 
	C274.056671,175.077194 272.092621,176.894028 269.964386,178.487961 
	C267.703247,180.181427 267.024872,181.688324 269.089172,184.186020 
	C271.173035,186.707443 272.973328,186.858459 275.300385,184.732620 
	C277.019440,183.162186 278.830170,181.685196 280.670013,180.256638 
	C281.655609,179.491333 282.842651,179.148407 283.711395,180.427505 
	C284.412933,181.460495 283.772614,182.353851 283.005524,183.041138 
	C281.269653,184.596481 279.561005,186.200638 277.693939,187.586487 
	C275.418335,189.275589 274.686798,190.863205 276.842255,193.292267 
	C278.749451,195.441528 280.349457,197.613998 283.360168,194.212372 
z"/>
<path fill="#000000" opacity="1.000000" stroke="none" 
	d="
M213.676361,257.106567 
	C211.597321,259.059387 210.876617,257.800751 210.406784,256.134064 
	C208.151413,248.133453 205.843262,240.146240 203.730835,232.107742 
	C203.099014,229.703491 204.028366,226.952118 206.883804,228.156219 
	C215.542801,231.807678 223.939194,236.081818 232.438019,240.113449 
	C231.238220,243.665680 229.235458,243.304657 227.492493,242.061798 
	C224.185486,239.703674 222.110016,241.285904 219.220291,243.263687 
	C214.101242,246.767227 211.823273,250.779083 213.676361,257.106567 
M209.667267,239.795654 
	C210.457611,241.156723 209.999146,243.200516 212.188782,244.067627 
	C214.726578,242.807892 216.908112,241.014343 218.494797,238.078094 
	C215.328934,236.086884 212.417480,234.210449 208.766968,233.934647 
	C208.029221,236.064819 209.316711,237.494904 209.667267,239.795654 
z"/>
<path fill="#000000" opacity="1.000000" stroke="none" 
	d="
M37.006275,368.872162 
	C39.739998,367.311127 40.479858,369.629608 41.548603,370.857269 
	C45.686817,375.610687 49.698460,380.474335 53.919762,385.490021 
	C57.742252,383.719604 60.209965,380.725952 63.200626,378.458435 
	C64.261650,377.653900 65.435425,376.542603 66.648796,377.968109 
	C67.833809,379.360291 66.666115,380.473450 65.666321,381.336731 
	C62.391262,384.164612 59.062065,386.930145 55.736786,389.699310 
	C54.361324,390.844818 52.988434,390.833710 51.803837,389.423462 
	C46.772999,383.434235 41.755020,377.434082 36.759159,371.415680 
	C36.175793,370.712891 36.249195,369.873932 37.006275,368.872162 
z"/>
<path fill="#000000" opacity="1.000000" stroke="none" 
	d="
M351.083679,417.593475 
	C348.648163,418.826965 346.399200,421.507996 343.981140,418.697327 
	C342.785156,417.307129 341.748352,415.148346 342.799622,413.223267 
	C343.698792,411.576660 345.720459,411.119537 347.493011,410.898254 
	C349.959412,410.590332 350.258606,412.797028 350.872681,414.406616 
	C351.208832,415.287659 351.146210,416.320801 351.083679,417.593475 
z"/>
<path fill="#000000" opacity="1.000000" stroke="none" 
	d="
M408.706482,392.174133 
	C407.058319,387.829102 410.551178,387.818604 412.604431,387.136261 
	C415.685883,386.112152 415.976654,388.979919 416.795197,390.840607 
	C417.825745,393.183258 416.265289,394.049683 414.442780,394.883453 
	C411.631836,396.169464 409.645721,395.821655 408.706482,392.174133 
z"/>
</svg>